<svg width="1547" height="216" viewBox="0 0 1547 216" fill="none" xmlns="http://www.w3.org/2000/svg">
<path d="M0.3 2.99999H87.6V33H33.3V91.5H75.9V121.5H33.3V213H0.3V2.99999ZM103.425 2.99999H152.325C169.325 2.99999 181.725 6.99999 189.525 15C197.325 22.8 201.225 34.9 201.225 51.3V64.2C201.225 86 194.025 99.8 179.625 105.6V106.2C187.625 108.6 193.225 113.5 196.425 120.9C199.825 128.3 201.525 138.2 201.525 150.6V187.5C201.525 193.5 201.725 198.4 202.125 202.2C202.525 205.8 203.525 209.4 205.125 213H171.525C170.325 209.6 169.525 206.4 169.125 203.4C168.725 200.4 168.525 195 168.525 187.2V148.8C168.525 139.2 166.925 132.5 163.725 128.7C160.725 124.9 155.425 123 147.825 123H136.425V213H103.425V2.99999ZM148.425 93C155.025 93 159.925 91.3 163.125 87.9C166.525 84.5 168.225 78.8 168.225 70.8V54.6C168.225 47 166.825 41.5 164.025 38.1C161.425 34.7 157.225 33 151.425 33H136.425V93H148.425ZM224.421 2.99999H257.421V213H224.421V2.99999ZM282.136 2.99999H372.136V33H315.136V88.5H360.436V118.5H315.136V183H372.136V213H282.136V2.99999ZM391.12 2.99999H432.52L464.62 128.7H465.22V2.99999H494.62V213H460.72L421.12 59.7H420.52V213H391.12V2.99999ZM519.148 2.99999H569.548C585.948 2.99999 598.248 7.39999 606.448 16.2C614.648 25 618.748 37.9 618.748 54.9V161.1C618.748 178.1 614.648 191 606.448 199.8C598.248 208.6 585.948 213 569.548 213H519.148V2.99999ZM568.948 183C574.348 183 578.448 181.4 581.248 178.2C584.248 175 585.748 169.8 585.748 162.6V53.4C585.748 46.2 584.248 41 581.248 37.8C578.448 34.6 574.348 33 568.948 33H552.148V183H568.948ZM683.923 216C667.923 216 655.823 211.5 647.623 202.5C639.423 193.3 635.323 180.2 635.323 163.2V151.2H666.523V165.6C666.523 179.2 672.223 186 683.623 186C689.223 186 693.423 184.4 696.223 181.2C699.223 177.8 700.723 172.4 700.723 165C700.723 156.2 698.723 148.5 694.723 141.9C690.723 135.1 683.323 127 672.523 117.6C658.923 105.6 649.423 94.8 644.023 85.2C638.623 75.4 635.923 64.4 635.923 52.2C635.923 35.6 640.123 22.8 648.523 13.8C656.923 4.59999 669.123 -1.14441e-05 685.123 -1.14441e-05C700.923 -1.14441e-05 712.823 4.59999 720.823 13.8C729.023 22.8 733.123 35.8 733.123 52.8V61.5H701.923V50.7C701.923 43.5 700.523 38.3 697.723 35.1C694.923 31.7 690.823 30 685.423 30C674.423 30 668.923 36.7 668.923 50.1C668.923 57.7 670.923 64.8 674.923 71.4C679.123 78 686.623 86 697.423 95.4C711.223 107.4 720.723 118.3 725.923 128.1C731.123 137.9 733.723 149.4 733.723 162.6C733.723 179.8 729.423 193 720.823 202.2C712.423 211.4 700.123 216 683.923 216ZM835.191 216C823.191 216 814.091 211.9 807.891 203.7C801.691 195.5 798.591 183.6 798.591 168V146.1C798.591 135.1 800.491 125.9 804.291 118.5C808.091 111.1 814.291 105.7 822.891 102.3V101.7C815.091 98.5 809.291 93.4 805.491 86.4C801.891 79.2 800.091 70 800.091 58.8V54.9C800.091 37.9 804.191 25 812.391 16.2C820.591 7.39999 832.891 2.99999 849.291 2.99999H887.091V33H849.891C844.491 33 840.291 34.6 837.291 37.8C834.491 41 833.091 46.2 833.091 53.4V66.3C833.091 74.3 834.691 80 837.891 83.4C841.291 86.8 846.291 88.5 852.891 88.5H865.791V65.1H898.191V88.5H907.491V118.5H898.191V187.5C898.191 193.5 898.391 198.4 898.791 202.2C899.191 205.8 900.191 209.4 901.791 213H868.791C867.191 208.6 866.191 203.1 865.791 196.5H865.191C861.591 203.1 857.391 208 852.591 211.2C847.991 214.4 842.191 216 835.191 216ZM847.491 186C857.891 186 863.991 179.7 865.791 167.1V118.5H853.191C845.591 118.5 840.091 120.6 836.691 124.8C833.291 128.8 831.591 135.6 831.591 145.2V166.5C831.591 173.5 832.991 178.5 835.791 181.5C838.591 184.5 842.491 186 847.491 186Z" fill="#73A950"/>
<path d="M973.835 2.99999H1023.64C1040.64 2.99999 1053.04 6.99999 1060.84 15C1068.64 22.8 1072.54 34.9 1072.54 51.3V59.7C1072.54 70.5 1070.74 79.3 1067.14 86.1C1063.74 92.9 1058.44 97.8 1051.24 100.8V101.4C1067.64 107 1075.84 121.6 1075.84 145.2V163.2C1075.84 179.4 1071.54 191.8 1062.94 200.4C1054.54 208.8 1042.14 213 1025.74 213H973.835V2.99999ZM1019.74 88.5C1026.34 88.5 1031.24 86.8 1034.44 83.4C1037.84 80 1039.54 74.3 1039.54 66.3V54.6C1039.54 47 1038.14 41.5 1035.34 38.1C1032.74 34.7 1028.54 33 1022.74 33H1006.84V88.5H1019.74ZM1025.74 183C1031.54 183 1035.84 181.5 1038.64 178.5C1041.44 175.3 1042.84 169.9 1042.84 162.3V144C1042.84 134.4 1041.14 127.8 1037.74 124.2C1034.54 120.4 1029.14 118.5 1021.54 118.5H1006.84V183H1025.74ZM1095.12 2.99999H1144.02C1161.02 2.99999 1173.42 6.99999 1181.22 15C1189.02 22.8 1192.92 34.9 1192.92 51.3V64.2C1192.92 86 1185.72 99.8 1171.32 105.6V106.2C1179.32 108.6 1184.92 113.5 1188.12 120.9C1191.52 128.3 1193.22 138.2 1193.22 150.6V187.5C1193.22 193.5 1193.42 198.4 1193.82 202.2C1194.22 205.8 1195.22 209.4 1196.82 213H1163.22C1162.02 209.6 1161.22 206.4 1160.82 203.4C1160.42 200.4 1160.22 195 1160.22 187.2V148.8C1160.22 139.2 1158.62 132.5 1155.42 128.7C1152.42 124.9 1147.12 123 1139.52 123H1128.12V213H1095.12V2.99999ZM1140.12 93C1146.72 93 1151.62 91.3 1154.82 87.9C1158.22 84.5 1159.92 78.8 1159.92 70.8V54.6C1159.92 47 1158.52 41.5 1155.72 38.1C1153.12 34.7 1148.92 33 1143.12 33H1128.12V93H1140.12ZM1262.92 216C1246.92 216 1234.72 211.5 1226.32 202.5C1217.92 193.3 1213.72 180.2 1213.72 163.2V52.8C1213.72 35.8 1217.92 22.8 1226.32 13.8C1234.72 4.59999 1246.92 -1.14441e-05 1262.92 -1.14441e-05C1278.92 -1.14441e-05 1291.12 4.59999 1299.52 13.8C1307.92 22.8 1312.12 35.8 1312.12 52.8V70.8H1280.92V50.7C1280.92 36.9 1275.22 30 1263.82 30C1252.42 30 1246.72 36.9 1246.72 50.7V165.6C1246.72 179.2 1252.42 186 1263.82 186C1275.22 186 1280.92 179.2 1280.92 165.6V124.5H1264.42V94.5H1312.12V163.2C1312.12 180.2 1307.92 193.3 1299.52 202.5C1291.12 211.5 1278.92 216 1262.92 216ZM1333.31 2.99999H1382.21C1399.21 2.99999 1411.61 6.99999 1419.41 15C1427.21 22.8 1431.11 34.9 1431.11 51.3V64.2C1431.11 86 1423.91 99.8 1409.51 105.6V106.2C1417.51 108.6 1423.11 113.5 1426.31 120.9C1429.71 128.3 1431.41 138.2 1431.41 150.6V187.5C1431.41 193.5 1431.61 198.4 1432.01 202.2C1432.41 205.8 1433.41 209.4 1435.01 213H1401.41C1400.21 209.6 1399.41 206.4 1399.01 203.4C1398.61 200.4 1398.41 195 1398.41 187.2V148.8C1398.41 139.2 1396.81 132.5 1393.61 128.7C1390.61 124.9 1385.31 123 1377.71 123H1366.31V213H1333.31V2.99999ZM1378.31 93C1384.91 93 1389.81 91.3 1393.01 87.9C1396.41 84.5 1398.11 78.8 1398.11 70.8V54.6C1398.11 47 1396.71 41.5 1393.91 38.1C1391.31 34.7 1387.11 33 1381.31 33H1366.31V93H1378.31ZM1497.2 216C1481.2 216 1469.1 211.5 1460.9 202.5C1452.7 193.3 1448.6 180.2 1448.6 163.2V151.2H1479.8V165.6C1479.8 179.2 1485.5 186 1496.9 186C1502.5 186 1506.7 184.4 1509.5 181.2C1512.5 177.8 1514 172.4 1514 165C1514 156.2 1512 148.5 1508 141.9C1504 135.1 1496.6 127 1485.8 117.6C1472.2 105.6 1462.7 94.8 1457.3 85.2C1451.9 75.4 1449.2 64.4 1449.2 52.2C1449.2 35.6 1453.4 22.8 1461.8 13.8C1470.2 4.59999 1482.4 -1.14441e-05 1498.4 -1.14441e-05C1514.2 -1.14441e-05 1526.1 4.59999 1534.1 13.8C1542.3 22.8 1546.4 35.8 1546.4 52.8V61.5H1515.2V50.7C1515.2 43.5 1513.8 38.3 1511 35.1C1508.2 31.7 1504.1 30 1498.7 30C1487.7 30 1482.2 36.7 1482.2 50.1C1482.2 57.7 1484.2 64.8 1488.2 71.4C1492.4 78 1499.9 86 1510.7 95.4C1524.5 107.4 1534 118.3 1539.2 128.1C1544.4 137.9 1547 149.4 1547 162.6C1547 179.8 1542.7 193 1534.1 202.2C1525.7 211.4 1513.4 216 1497.2 216Z" fill="#534C45"/>
</svg>
