<svg width="516" height="72" viewBox="0 0 516 72" fill="none" xmlns="http://www.w3.org/2000/svg">
<path d="M0.1 0.999995H29.2V11H11.1V30.5H25.3V40.5H11.1V71H0.1V0.999995ZM34.475 0.999995H50.775C56.4417 0.999995 60.575 2.33333 63.175 5C65.775 7.6 67.075 11.6333 67.075 17.1V21.4C67.075 28.6667 64.675 33.2667 59.875 35.2V35.4C62.5417 36.2 64.4083 37.8333 65.475 40.3C66.6083 42.7667 67.175 46.0667 67.175 50.2V62.5C67.175 64.5 67.2417 66.1333 67.375 67.4C67.5083 68.6 67.8417 69.8 68.375 71H57.175C56.775 69.8667 56.5083 68.8 56.375 67.8C56.2417 66.8 56.175 65 56.175 62.4V49.6C56.175 46.4 55.6417 44.1667 54.575 42.9C53.575 41.6333 51.8083 41 49.275 41H45.475V71H34.475V0.999995ZM49.475 31C51.675 31 53.3083 30.4333 54.375 29.3C55.5083 28.1667 56.075 26.2667 56.075 23.6V18.2C56.075 15.6667 55.6083 13.8333 54.675 12.7C53.8083 11.5667 52.4083 11 50.475 11H45.475V31H49.475ZM74.807 0.999995H85.807V71H74.807V0.999995ZM94.0453 0.999995H124.045V11H105.045V29.5H120.145V39.5H105.045V61H124.045V71H94.0453V0.999995ZM130.373 0.999995H144.173L154.873 42.9H155.073V0.999995H164.873V71H153.573L140.373 19.9H140.173V71H130.373V0.999995ZM173.049 0.999995H189.849C195.316 0.999995 199.416 2.46666 202.149 5.4C204.883 8.33333 206.249 12.6333 206.249 18.3V53.7C206.249 59.3667 204.883 63.6667 202.149 66.6C199.416 69.5333 195.316 71 189.849 71H173.049V0.999995ZM189.649 61C191.449 61 192.816 60.4667 193.749 59.4C194.749 58.3333 195.249 56.6 195.249 54.2V17.8C195.249 15.4 194.749 13.6667 193.749 12.6C192.816 11.5333 191.449 11 189.649 11H184.049V61H189.649ZM227.974 72C222.641 72 218.608 70.5 215.874 67.5C213.141 64.4333 211.774 60.0667 211.774 54.4V50.4H222.174V55.2C222.174 59.7333 224.074 62 227.874 62C229.741 62 231.141 61.4667 232.074 60.4C233.074 59.2667 233.574 57.4667 233.574 55C233.574 52.0667 232.908 49.5 231.574 47.3C230.241 45.0333 227.774 42.3333 224.174 39.2C219.641 35.2 216.474 31.6 214.674 28.4C212.874 25.1333 211.974 21.4667 211.974 17.4C211.974 11.8667 213.374 7.6 216.174 4.6C218.974 1.53333 223.041 -3.8147e-06 228.374 -3.8147e-06C233.641 -3.8147e-06 237.608 1.53333 240.274 4.6C243.008 7.6 244.374 11.9333 244.374 17.6V20.5H233.974V16.9C233.974 14.5 233.508 12.7667 232.574 11.7C231.641 10.5667 230.274 10 228.474 10C224.808 10 222.974 12.2333 222.974 16.7C222.974 19.2333 223.641 21.6 224.974 23.8C226.374 26 228.874 28.6667 232.474 31.8C237.074 35.8 240.241 39.4333 241.974 42.7C243.708 45.9667 244.574 49.8 244.574 54.2C244.574 59.9333 243.141 64.3333 240.274 67.4C237.474 70.4667 233.374 72 227.974 72ZM278.397 72C274.397 72 271.364 70.6333 269.297 67.9C267.23 65.1667 266.197 61.2 266.197 56V48.7C266.197 45.0333 266.83 41.9667 268.097 39.5C269.364 37.0333 271.43 35.2333 274.297 34.1V33.9C271.697 32.8333 269.764 31.1333 268.497 28.8C267.297 26.4 266.697 23.3333 266.697 19.6V18.3C266.697 12.6333 268.064 8.33333 270.797 5.4C273.53 2.46666 277.63 0.999995 283.097 0.999995H295.697V11H283.297C281.497 11 280.097 11.5333 279.097 12.6C278.164 13.6667 277.697 15.4 277.697 17.8V22.1C277.697 24.7667 278.23 26.6667 279.297 27.8C280.43 28.9333 282.097 29.5 284.297 29.5H288.597V21.7H299.397V29.5H302.497V39.5H299.397V62.5C299.397 64.5 299.464 66.1333 299.597 67.4C299.73 68.6 300.064 69.8 300.597 71H289.597C289.064 69.5333 288.73 67.7 288.597 65.5H288.397C287.197 67.7 285.797 69.3333 284.197 70.4C282.664 71.4667 280.73 72 278.397 72ZM282.497 62C285.964 62 287.997 59.9 288.597 55.7V39.5H284.397C281.864 39.5 280.03 40.2 278.897 41.6C277.764 42.9333 277.197 45.2 277.197 48.4V55.5C277.197 57.8333 277.664 59.5 278.597 60.5C279.53 61.5 280.83 62 282.497 62Z" fill="#73A950"/>
<path d="M324.612 0.999995H341.212C346.878 0.999995 351.012 2.33333 353.612 5C356.212 7.6 357.512 11.6333 357.512 17.1V19.9C357.512 23.5 356.912 26.4333 355.712 28.7C354.578 30.9667 352.812 32.6 350.412 33.6V33.8C355.878 35.6667 358.612 40.5333 358.612 48.4V54.4C358.612 59.8 357.178 63.9333 354.312 66.8C351.512 69.6 347.378 71 341.912 71H324.612V0.999995ZM339.912 29.5C342.112 29.5 343.745 28.9333 344.812 27.8C345.945 26.6667 346.512 24.7667 346.512 22.1V18.2C346.512 15.6667 346.045 13.8333 345.112 12.7C344.245 11.5667 342.845 11 340.912 11H335.612V29.5H339.912ZM341.912 61C343.845 61 345.278 60.5 346.212 59.5C347.145 58.4333 347.612 56.6333 347.612 54.1V48C347.612 44.8 347.045 42.6 345.912 41.4C344.845 40.1333 343.045 39.5 340.512 39.5H335.612V61H341.912ZM365.041 0.999995H381.341C387.008 0.999995 391.141 2.33333 393.741 5C396.341 7.6 397.641 11.6333 397.641 17.1V21.4C397.641 28.6667 395.241 33.2667 390.441 35.2V35.4C393.108 36.2 394.975 37.8333 396.041 40.3C397.175 42.7667 397.741 46.0667 397.741 50.2V62.5C397.741 64.5 397.808 66.1333 397.941 67.4C398.075 68.6 398.408 69.8 398.941 71H387.741C387.341 69.8667 387.075 68.8 386.941 67.8C386.808 66.8 386.741 65 386.741 62.4V49.6C386.741 46.4 386.208 44.1667 385.141 42.9C384.141 41.6333 382.375 41 379.841 41H376.041V71H365.041V0.999995ZM380.041 31C382.241 31 383.875 30.4333 384.941 29.3C386.075 28.1667 386.641 26.2667 386.641 23.6V18.2C386.641 15.6667 386.175 13.8333 385.241 12.7C384.375 11.5667 382.975 11 381.041 11H376.041V31H380.041ZM420.973 72C415.64 72 411.573 70.5 408.773 67.5C405.973 64.4333 404.573 60.0667 404.573 54.4V17.6C404.573 11.9333 405.973 7.6 408.773 4.6C411.573 1.53333 415.64 -3.8147e-06 420.973 -3.8147e-06C426.307 -3.8147e-06 430.373 1.53333 433.173 4.6C435.973 7.6 437.373 11.9333 437.373 17.6V23.6H426.973V16.9C426.973 12.3 425.073 10 421.273 10C417.473 10 415.573 12.3 415.573 16.9V55.2C415.573 59.7333 417.473 62 421.273 62C425.073 62 426.973 59.7333 426.973 55.2V41.5H421.473V31.5H437.373V54.4C437.373 60.0667 435.973 64.4333 433.173 67.5C430.373 70.5 426.307 72 420.973 72ZM444.436 0.999995H460.736C466.403 0.999995 470.536 2.33333 473.136 5C475.736 7.6 477.036 11.6333 477.036 17.1V21.4C477.036 28.6667 474.636 33.2667 469.836 35.2V35.4C472.503 36.2 474.369 37.8333 475.436 40.3C476.569 42.7667 477.136 46.0667 477.136 50.2V62.5C477.136 64.5 477.203 66.1333 477.336 67.4C477.469 68.6 477.803 69.8 478.336 71H467.136C466.736 69.8667 466.469 68.8 466.336 67.8C466.203 66.8 466.136 65 466.136 62.4V49.6C466.136 46.4 465.603 44.1667 464.536 42.9C463.536 41.6333 461.769 41 459.236 41H455.436V71H444.436V0.999995ZM459.436 31C461.636 31 463.269 30.4333 464.336 29.3C465.469 28.1667 466.036 26.2667 466.036 23.6V18.2C466.036 15.6667 465.569 13.8333 464.636 12.7C463.769 11.5667 462.369 11 460.436 11H455.436V31H459.436ZM499.068 72C493.735 72 489.701 70.5 486.968 67.5C484.235 64.4333 482.868 60.0667 482.868 54.4V50.4H493.268V55.2C493.268 59.7333 495.168 62 498.968 62C500.835 62 502.235 61.4667 503.168 60.4C504.168 59.2667 504.668 57.4667 504.668 55C504.668 52.0667 504.001 49.5 502.668 47.3C501.335 45.0333 498.868 42.3333 495.268 39.2C490.735 35.2 487.568 31.6 485.768 28.4C483.968 25.1333 483.068 21.4667 483.068 17.4C483.068 11.8667 484.468 7.6 487.268 4.6C490.068 1.53333 494.135 -3.8147e-06 499.468 -3.8147e-06C504.735 -3.8147e-06 508.701 1.53333 511.368 4.6C514.101 7.6 515.468 11.9333 515.468 17.6V20.5H505.068V16.9C505.068 14.5 504.601 12.7667 503.668 11.7C502.735 10.5667 501.368 10 499.568 10C495.901 10 494.068 12.2333 494.068 16.7C494.068 19.2333 494.735 21.6 496.068 23.8C497.468 26 499.968 28.6667 503.568 31.8C508.168 35.8 511.335 39.4333 513.068 42.7C514.801 45.9667 515.668 49.8 515.668 54.2C515.668 59.9333 514.235 64.3333 511.368 67.4C508.568 70.4667 504.468 72 499.068 72Z" fill="#534C45"/>
</svg>
